<svg xmlns="http://www.w3.org/2000/svg" viewBox="0 0 900 600">
<rect width="900" height="600" fill="#00008b"/>
<g fill="#fff">
  <path d="M0,0 L450,300 L0,600 z M900,0 L450,300 L900,600 z"/>
  <path d="M0,0 L900,600 M900,0 L0,600" stroke="#fff" stroke-width="60"/>
  <path d="M450,0 V600 M0,300 H900" stroke="#fff" stroke-width="100"/>
  <path d="M450,0 V600 M0,300 H900" stroke="#f00" stroke-width="60"/>
</g>
<g fill="#fff">
  <polygon points="600,400 617,452 673,452 628,485 645,537 600,504 555,537 572,485 527,452 583,452"/>
  <polygon points="750,150 767,202 823,202 778,235 795,287 750,254 705,287 722,235 677,202 733,202"/>
  <polygon points="750,450 767,502 823,502 778,535 795,587 750,554 705,587 722,535 677,502 733,502"/>
  <polygon points="600,200 617,252 673,252 628,285 645,337 600,304 555,337 572,285 527,252 583,252"/>
  <polygon points="450,350 467,402 523,402 478,435 495,487 450,454 405,487 422,435 377,402 433,402"/>
</g>
</svg>

