<?xml version="1.0" encoding="UTF-8"?>
<svg xmlns="http://www.w3.org/2000/svg" width="500" height="500" viewBox="0 0 500 500">
  <!-- White background circle -->
  <circle cx="250" cy="250" r="250" fill="white"/>
  
  <!-- Outer text circle with stars -->
  <text fill="#666666" font-family="Arial" font-size="24" text-anchor="middle" dominant-baseline="middle">
    <textPath href="#textCircle" startOffset="50%">
      TÜRKİYE CUMHURİYETİ CUMHURBAŞKANLIĞI ★ İLETİŞİM BAŞKANLIĞI ★
    </textPath>
  </text>
  <defs>
    <path id="textCircle" d="M50,250 A200,200 0 1,1 450,250 A200,200 0 1,1 50,250" fill="none"/>
  </defs>
  
  <!-- Central geometric star pattern -->
  <g transform="translate(125,125) scale(0.5)">
    <path fill="#e30a17" d="
      M250,250 L500,250 L375,375 L500,500 L250,500 L250,250
      M250,250 L250,0 L375,125 L500,0 L500,250 L250,250
      M250,250 L0,250 L125,125 L0,0 L250,0 L250,250
      M250,250 L250,500 L125,375 L0,500 L0,250 L250,250
    "/>
  </g>
</svg>

